<?xml version="1.0" encoding="UTF-8"?>
<svg id="Layer_2" data-name="Layer 2" xmlns="http://www.w3.org/2000/svg" viewBox="0 0 172.33 128.97">
  <defs>
    <style>
      .cls-1 {
        fill-rule: evenodd;
        opacity: .15;
      }

      .cls-2 {
        fill: #ff1d25;
      }
    </style>
  </defs>
  <g id="Layer_1-2" data-name="Layer 1">
    <g>
      <g>
        <path class="cls-2" d="M49.82,0L0,1.48,1.33,126.57l15.6-.37-.35-43.79,28.46-.18,.27-26.79-28.9,1.11-.18-24.2,33.6-1.29V0Z"/>
        <path class="cls-2" d="M112.32,110.37l-8.78-14.11,4.88-8.31-8.51-19.03-6.65,10.53-6.56-10.72,7.18-7.76-.18-59.31-34.4,2.4,.98,53.21-11.88,16.08,.09,54.14,39.36-.92,6.21-13.49,9.84,15.89,8.44-15.59,.86-1.59-.88-1.41ZM82.18,14.97l.27,26.24-10.46,9.79-.98-34,11.17-2.03Zm-14.01,94.97l-3.72-4.25-.62-12.19,11.08-12.01,8.69,14.23-15.42,14.23Z"/>
        <path class="cls-2" d="M172.24,59.31h-27.48v18.66h9.49l-.27,14.97-24.82-1.29,.89-68,42.2,1.85-.35-24.02L111.78,0l.54,110.37,.02,3.01,.06,13.19,59.93-.92-.09-66.33Z"/>
      </g>
      <polygon class="cls-1" points="16.4 56.54 45.3 55.43 45.03 82.22 16.58 82.41 16.93 126.2 1.33 126.57 0 1.48 49.82 0 49.82 31.04 16.22 32.33 16.4 56.54"/>
      <path class="cls-1" d="M172.24,59.31h-27.48v18.66h9.49l-.27,14.97-24.82-1.29,.89-68,42.2,1.85-.35-24.02L111.78,0l.54,110.37-8.78-14.11,4.88-8.31-8.51-19.03-6.65,10.53-6.56-10.72,7.18-7.76-.18-59.31-34.4,2.4,.98,53.21-11.88,16.08,.09,54.14,39.36-.92,6.21-13.49,9.84,15.89,8.44-15.59,.06,13.19,59.93-.92-.09-66.33ZM82.18,14.97l.27,26.24-10.46,9.79-.98-34,11.17-2.03Zm-14.01,94.97l-3.72-4.25-.62-12.19,11.08-12.01,8.69,14.23-15.42,14.23Z"/>
    </g>
  </g>
</svg>